#!OML:ASF F:\VICON\USERDATA\INSTALL\SteveWalk\SteveWalk.ASF
:FULLY-SPECIFIED
:DEGREES
16
root -1.2687 16.4218 -42.7905 17.843 0.957393 0.632759
lowerback -16.1245 0.773784 0.34367
upperback -3.88687 0.87482 1.61065
thorax 4.87406 0.432217 1.68136
lowerneck -4.28785 -0.240858 1.839
upperneck 7.06931 0.0156686 -6.254
head 3.04645 -0.163723 -2.38011
rclavicle 6.31141e-015 -7.15625e-015
rhumerus -18.2739 2.43187 -85.1795
rradius 39.4547
rwrist -12.5942
rhand -14.6194 -33.9138
rfingers 7.12502
rthumb 11.5318 -63.5765
lclavicle 6.31141e-015 -7.15625e-015
lhumerus -45.8949 16.0597 75.6859
lradius 15.9952
lwrist -29.9225
lhand -5.18904 -15.5242
lfingers 7.12502
lthumb 20.6118 13.4015
rfemur -20.3642 -7.81947 24.2307
rtibia 32.5326
rfoot -28.2447 7.43832
rtoes -6.66935
lfemur -49.448 3.59136 -23.5467
ltibia 44.0216
lfoot -9.37153 9.0758
ltoes -4.14948
17
root -1.25995 16.4079 -42.5721 17.8165 0.441574 0.467798
lowerback -16.2372 0.970588 0.479512
upperback -3.50919 1.1131 1.4544
thorax 5.33539 0.54787 1.49529
lowerneck -5.22454 -0.226289 2.06212
upperneck 7.09007 0.0101565 -6.18393
head 3.23342 -0.172463 -2.41
rclavicle 1.75924e-014 -7.15625e-015
rhumerus -16.7624 3.7563 -85.3142
rradius 40.7934
rwrist -13.5052
rhand -15.0082 -36.308
rfingers 7.12502
rthumb 11.1568 -65.9914
lclavicle 1.75924e-014 -7.15625e-015
lhumerus -46.0687 16.096 75.469
lradius 16.0429
lwrist -29.6389
lhand -4.96751 -15.3177
lfingers 7.12502
lthumb 20.8246 13.5847
rfemur -19.0349 -8.36492 24.1352
rtibia 31.6467
rfoot -28.4192 8.69259
rtoes -5.78698
lfemur -49.364 3.76604 -23.3333
ltibia 40.4523
lfoot -9.32151 9.26417
ltoes -6.63284
18
root -1.25436 16.3913 -42.3487 17.5041 -0.209784 0.291448
lowerback -15.6357 1.20281 0.436885
upperback -3.90639 1.44158 1.43932
thorax 4.58184 0.713625 1.54654
lowerneck -3.8785 -0.309114 1.92554
upperneck 6.94055 -0.106428 -5.99292
head 2.91722 -0.205247 -2.30452
rclavicle -9.7156e-015 -1.82882e-014
rhumerus -17.0485 5.00235 -85.2126
rradius 42.1618
rwrist -14.3033
rhand -15.5886 -37.6734
rfingers 7.12502
rthumb 10.5971 -67.3862
lclavicle -9.7156e-015 -1.82882e-014
lhumerus -47.8379 15.4269 75.3413
lradius 16.2601
lwrist -28.967
lhand -4.91862 -14.9469
lfingers 7.12502
lthumb 20.8716 13.9503
rfemur -17.3669 -8.70606 23.935
rtibia 30.7232
rfoot -28.4991 9.77661
rtoes -5.23369
lfemur -48.836 3.95548 -22.9759
ltibia 36.8172
lfoot -9.17096 9.51217
ltoes -7.89839
19
root -1.24422 16.3794 -42.1221 17.3489 -0.65952 0.194987
lowerback -15.725 1.38344 0.444713
upperback -4.67587 1.68857 1.41772
thorax 3.81191 0.841132 1.55368
lowerneck -0.139731 -0.374957 1.60027
upperneck 6.02659 -0.230792 -5.69141
head 1.91731 -0.199996 -2.09322
rclavicle 2.29472e-014 2.78299e-014
rhumerus -18.2379 6.13432 -85.1445
rradius 43.3534
rwrist -14.949
rhand -16.235 -38.2284
rfingers 7.12502
rthumb 9.97345 -67.9721
lclavicle 2.29472e-014 2.78299e-014
lhumerus -50.5391 14.7377 74.8067
lradius 16.3307
lwrist -28.8075
lhand -5.17249 -15.2727
lfingers 7.12502
lthumb 20.6277 13.6512
rfemur -15.8163 -9.10261 23.6837
rtibia 29.718
rfoot -28.4926 10.7747
rtoes -5.01509
lfemur -48.4403 3.88336 -22.593
ltibia 33.1779
lfoot -8.78013 9.54952
ltoes -6.58572
20
root -1.22871 16.37 -41.9004 17.5065 -1.29686 -0.0679129
lowerback -16.2874 1.52511 0.477745
upperback -3.93853 1.84412 1.52203
thorax 4.8878 0.9096 1.7087
lowerneck -2.34492 -0.169388 1.58076
upperneck 6.26565 0.0581948 -5.7655
head 2.40783 -0.0938276 -2.13241
rclavicle -5.36719e-015 1.35174e-014
rhumerus -15.6803 7.43349 -84.7597
rradius 43.8594
rwrist -15.5762
rhand -16.3116 -37.7011
rfingers 7.12502
rthumb 9.89954 -67.4484
lclavicle -5.36719e-015 1.35174e-014
lhumerus -49.9476 15.9365 74.5098
lradius 15.9867
lwrist -29.3216
lhand -6.21574 -15.9715
lfingers 7.12502
lthumb 19.6249 13.0579
rfemur -14.5743 -9.08639 23.5453
rtibia 28.6205
rfoot -28.3227 11.8573
rtoes -4.40607
lfemur -48.3675 3.95897 -22.0432
ltibia 29.6175
lfoot -8.47488 9.44554
ltoes -5.73969
21
root -1.21156 16.3514 -41.6815 17.661 -1.97211 -0.580296
lowerback -15.9849 1.73812 0.967377
upperback -4.50072 2.05372 1.6161
thorax 4.13819 1.02037 1.54852
lowerneck -0.942129 -0.130441 1.44653
upperneck 5.94876 0.103227 -5.80916
head 2.04967 -0.0504582 -2.10461
rclavicle -1.79527e-014 -3.97569e-015
rhumerus -16.0201 8.80194 -84.7963
rradius 44.8481
rwrist -15.9798
rhand -15.7021 -36.7925
rfingers 7.12502
rthumb 10.4875 -66.5108
lclavicle -1.79527e-014 -3.97569e-015
lhumerus -51.9175 15.3134 74.5568
lradius 16.5104
lwrist -27.9749
lhand -6.36838 -15.3744
lfingers 7.12502
lthumb 19.4782 13.6699
rfemur -13.3157 -8.8903 23.6271
rtibia 27.5184
rfoot -28.1836 12.9153
rtoes -3.89619
lfemur -48.3039 3.93913 -21.05
ltibia 26.1809
lfoot -8.09225 9.59963
ltoes -6.59704
22
root -1.19189 16.3249 -41.4526 17.7043 -2.1197 -0.796091
lowerback -15.5378 1.80377 1.21091
upperback -4.52488 2.11625 1.55608
thorax 3.88301 1.05275 1.34302
lowerneck -2.09814 -0.0666815 1.58727
upperneck 6.41887 0.203552 -5.77938
head 2.41966 -0.0202568 -2.13435
rclavicle -2.30714e-014 3.97569e-015
rhumerus -15.1323 9.6506 -84.697
rradius 45.6783
rwrist -16.2143
rhand -15.6188 -36.9359
rfingers 7.12502
rthumb 10.5678 -66.6502
lclavicle -2.30714e-014 3.97569e-015
lhumerus -52.5416 14.4314 75.2198
lradius 17.1617
lwrist -26.131
lhand -6.10969 -14.9538
lfingers 7.12502
lthumb 19.7269 14.0652
rfemur -11.9042 -9.19383 23.5142
rtibia 26.4725
rfoot -28.1791 13.784
rtoes -4.10852
lfemur -48.0869 3.25237 -20.0896
ltibia 22.9286
lfoot -7.80995 9.74057
ltoes -5.31416
23
root -1.16933 16.3029 -41.2218 17.8476 -2.23852 -0.522523
lowerback -16.5187 1.81674 1.1249
upperback -4.50284 2.13397 1.32611
thorax 4.43712 1.05856 1.18857
lowerneck -0.5715 -0.0579669 1.63789
upperneck 5.64392 0.173192 -5.6546
head 1.88653 0.00147616 -2.07999
rclavicle 1.50207e-014 9.54166e-015
rhumerus -14.6073 10.1428 -84.6027
rradius 46.3206
rwrist -16.1086
rhand -16.0489 -37.0905
rfingers 7.12502
rthumb 10.153 -66.8256
lclavicle 1.50207e-014 9.54166e-015
lhumerus -53.3201 14.0412 75.1748
lradius 17.2665
lwrist -25.0581
lhand -5.2417 -14.7944
lfingers 7.12502
lthumb 20.5612 14.1368
rfemur -10.6859 -9.40565 22.9148
rtibia 25.4211
rfoot -27.9674 14.3473
rtoes -4.57853
lfemur -48.0062 2.53285 -19.8007
ltibia 20.0067
lfoot -7.77907 9.69075
ltoes -1.95956
24
root -1.16136 16.2829 -40.9989 18.0149 -2.85406 -0.529818
lowerback -16.3675 1.78564 0.770818
upperback -4.41675 2.14324 1.49347
thorax 4.42801 1.06124 1.56358
lowerneck -1.84189 0.190788 1.11667
upperneck 6.09162 0.534794 -5.47209
head 2.27085 0.149846 -1.9331
rclavicle 2.6252e-014 1.35174e-014
rhumerus -13.2225 11.2329 -84.1197
rradius 46.8849
rwrist -16.0659
rhand -16.4775 -37.2749
rfingers 7.12502
rthumb 9.7395 -67.0297
lclavicle 2.6252e-014 1.35174e-014
lhumerus -53.2471 15.5863 74.3885
lradius 16.4825
lwrist -25.5412
lhand -5.6105 -15.0945
lfingers 7.12502
lthumb 20.2067 13.8745
rfemur -9.47196 -8.80863 22.5209
rtibia 24.2967
rfoot -27.5634 14.5949
rtoes -4.83504
lfemur -48.1144 2.84711 -19.7507
ltibia 17.5208
lfoot -7.76705 9.40114
ltoes -0.944374
25
root -1.14965 16.2659 -40.763 18.1873 -3.92882 -0.845061
lowerback -16.3253 2.30376 0.832353
upperback -4.74133 2.8277 1.35259
thorax 4.0578 1.40103 1.50354
lowerneck -1.37164 0.0759314 1.20292
upperneck 6.19736 0.368506 -5.26259
head 2.21243 0.0794638 -1.8816
rclavicle -2.30963e-014 -8.34896e-015
rhumerus -13.1919 11.4354 -83.8733
rradius 47.7824
rwrist -16.5401
rhand -16.9453 -37.5472
rfingers 7.12502
rthumb 9.28816 -67.3226
lclavicle -2.30963e-014 -8.34896e-015
lhumerus -54.6635 14.6924 74.336
lradius 16.8144
lwrist -24.8827
lhand -6.38782 -15.0961
lfingers 7.12502
lthumb 19.4595 13.9502
rfemur -8.1386 -8.25674 22.23
rtibia 23.1328
rfoot -27.1811 15.5668
rtoes -4.81259
lfemur -48.3032 4.22705 -20.0035
ltibia 15.4627
lfoot -7.84322 8.51397
ltoes -2.5679
26
root -1.12585 16.2482 -40.515 18.1325 -4.85218 -0.939982
lowerback -17.5323 2.70673 1.09911
upperback -3.98863 3.29235 1.05772
thorax 5.52689 1.62122 1.22139
lowerneck -1.67257 0.0788574 1.31792
upperneck 5.67771 0.331058 -4.98121
head 2.09303 0.0728002 -1.8065
rclavicle -2.94947e-014 3.57812e-015
rhumerus -11.6504 11.8008 -83.5832
rradius 48.5
rwrist -17.2175
rhand -17.3261 -36.9864
rfingers 7.12502
rthumb 8.92063 -66.7778
lclavicle -2.94947e-014 3.57812e-015
lhumerus -53.8593 15.3609 73.6424
lradius 16.169
lwrist -25.2778
lhand -6.51509 -14.1099
lfingers 7.12502
lthumb 19.3371 14.9487
rfemur -6.57886 -8.0947 21.6269
rtibia 22.0069
rfoot -26.8276 16.8176
rtoes -5.16261
lfemur -48.3468 5.72649 -20.8309
ltibia 13.8019
lfoot -8.08206 6.92081
ltoes -3.82573
